# xmcd
#
# Track frame offsets:
#	150
#	17774
#	36950
#	54190
#	78422
#	91955
#	106491
#	127961
#	146418
#	167461
#	182183
#	197803
#	216465
#	233023
#	245704
#	262196
#	279975
#	294811
#	311183
#
# Disc length: 4365
#
# Revision: 2
# Processed by: cddbd v1.5.1PL0 Copyright (c) Steve Scherf et al.
# Submitted via: OrangeCD 5.2
# Normalized: r1:DSETVAR1
#
DISCID=11110b13
DTITLE=Various Artist - Line Dance Fever 7
DYEAR=1998
DGENRE=Country
TTITLE0=Engelbert Humperdinck - Quando, Quando, Quando (Dance Mix)
TTITLE1=David Sheriff - Red Hot Salsa
TTITLE2=Clueless - My Heart Will Go On (Club version, single edit)
TTITLE3=Maurice John Vaughn - (Everything I Do) Got To Be Funky
TTITLE4=The Chammps - Get In Line
TTITLE5=Lee Roy Farnell - Country Down To My Soul
TTITLE6=Brad Hawkins - Come Back To Me Blues (House mix)
TTITLE7=Daily Planet - Dueling Banjos
TTITLE8=LeAnn Rimes - Commitment
TTITLE9=Rick Trevino - Un Momento Alla
TTITLE10=Jo Dee Messina - No Time For Tears
TTITLE11=Newton - Sometimes When We Touch
TTITLE12=Lena Fiagbe - Can't Smile Without You
TTITLE13=Trini Triggs - Straight Tequila
TTITLE14=David Kersh - If I Never Stop Loving You
TTITLE15=Steps - Words Of Wisdom
TTITLE16=Jeanette O'Keefe - Still The One
TTITLE17=Tim McGraw - Just To See You Smile
TTITLE18=Jeff Carson - Shine On
EXTD=
EXTT0=
EXTT1=
EXTT2=
EXTT3=
EXTT4=
EXTT5=
EXTT6=
EXTT7=
EXTT8=
EXTT9=
EXTT10=
EXTT11=
EXTT12=
EXTT13=
EXTT14=
EXTT15=
EXTT16=
EXTT17=
EXTT18=
PLAYORDER=
